<svg width="201" height="244" viewBox="0 0 201 244" fill="none" xmlns="http://www.w3.org/2000/svg">
    <path opacity=".09" fill="#875D8D" d="M0 53h87v136H0zM90 53h87v191H90z"/>
    <path d="M102.824 84.454h36.934c3.143 0 5.815-2.672 5.815-5.815V41.391c0-3.143-2.672-5.815-5.815-5.815h-36.934c-3.143 0-5.815 2.672-5.815 5.815V56.48s-15.716-6.13-15.716 4.4c0 11.474 15.873 3.615 15.873 3.615L97.01 78.64c0 3.143 2.672 5.815 5.815 5.815z" stroke="#2BAD81" stroke-width="2" stroke-miterlimit="10"/>
    <path d="M102.984 133.017h34.89c3.615 0 6.444-2.829 6.444-6.443v-11.316s16.345 5.501 15.717-5.344c-.629-9.901-14.774-3.614-14.774-3.614V91.212c0-3.615-2.829-6.444-6.444-6.444h-12.73s4.715-13.987-4.4-14.93c-6.916-.63-10.373 8.015-5.658 14.773h-12.888c-3.614 0-6.443 2.829-6.443 6.444v15.716s12.258-4.872 13.044 2.986c.786 7.544-7.072 8.644-13.044 5.029v11.788c-.157 3.614 2.671 6.443 6.286 6.443z" fill="#875D8D"/>
    <path d="M92.475 216.702s-5.339-.72-5.339-9.279 3.305-17.712-9.28-18.856c-12.33-1.144-16.016 1.78-25.295-2.838-9.28-4.619-14.619-8.899-13.898-20.297.72-11.398 2.839-10.677-1.78-14.957-4.619-4.28-5.339-6.78-2.839-9.619 2.5-2.838 4.28-9.618-1.398-11.736-5.678-2.119-14.957 2.118-12.119-9.28 2.84-11.398 16.737-20.932 18.475-29.406 1.737-8.474 6.228-55.762 20.677-68.812C81.628 1.876 108.831-2.234 131.203 3.19c22.669 5.466 60.55 20.932 66.058 50.338 4.703 25.254 3.474 48.346-12.203 66.566-15.72 18.178-23.686 51.864-9.958 67.795 13.729 15.932 5.466 28.813 5.466 28.813H92.475z" stroke="#2BAD81" stroke-width="2" stroke-miterlimit="10"/>
</svg>
