<svg width="618" height="585" viewBox="0 0 618 585" fill="none" xmlns="http://www.w3.org/2000/svg">
    <ellipse opacity=".09" cx="346" cy="271.5" rx="255" ry="255.5" fill="#875D8D"/>
    <path d="M549.621 388.302v97.297M549.621 397.643h15.6v-6.291M549.621 412.788h28.184l9.567-10.054M549.621 429.004h41.189l11.319-11.124M565.222 391.351a5.675 5.675 0 1 0 .001-11.351 5.675 5.675 0 0 0-.001 11.351z" stroke="#2BAD81" stroke-width="2" stroke-miterlimit="10"/>
    <path d="M590.617 403.675a5.676 5.676 0 1 0 0-11.353 5.676 5.676 0 0 0 0 11.353zM605.859 419.112a5.676 5.676 0 1 0 0-11.351 5.676 5.676 0 0 0 0 11.351zM549.621 476.259h15.6v6.292M549.621 461.113h28.184l9.567 10.054M549.621 444.865h41.189l11.319 11.157M565.222 493.903a5.676 5.676 0 1 0 0-11.351 5.676 5.676 0 0 0 0 11.351z" stroke="#2BAD81" stroke-width="2" stroke-miterlimit="10"/>
    <path d="M590.617 481.58a5.676 5.676 0 1 0 0-11.353 5.676 5.676 0 0 0 0 11.353zM605.859 466.139a5.675 5.675 0 1 0 .001-11.351 5.675 5.675 0 0 0-.001 11.351zM549.883 388.302v97.297M549.881 397.643h-15.6v-6.291M549.883 412.788h-28.151l-9.568-10.054M549.882 429.004h-41.157l-11.319-11.124M534.281 391.351a5.675 5.675 0 1 0 .001-11.351 5.675 5.675 0 0 0-.001 11.351z" stroke="#2BAD81" stroke-width="2" stroke-miterlimit="10"/>
    <path d="M508.887 403.675a5.675 5.675 0 1 0-.001-11.351 5.675 5.675 0 0 0 .001 11.351zM493.676 419.112a5.675 5.675 0 1 0-.001-11.351 5.675 5.675 0 0 0 .001 11.351zM549.881 476.259h-15.6v6.292M549.883 461.113h-28.151l-9.568 10.054M549.882 444.865h-41.157l-11.319 11.157M534.281 493.903a5.676 5.676 0 1 0 0-11.351 5.676 5.676 0 0 0 0 11.351z" stroke="#2BAD81" stroke-width="2" stroke-miterlimit="10"/>
    <path d="M508.887 481.58a5.675 5.675 0 1 0-.001-11.351 5.675 5.675 0 0 0 .001 11.351zM493.676 466.139a5.675 5.675 0 1 0 0-11.35 5.675 5.675 0 0 0 0 11.35z" stroke="#2BAD81" stroke-width="2" stroke-miterlimit="10"/>
    <path stroke="#2BAD81" stroke-width="2" d="M.457 517.866h617.359"/>
    <rect x="70.742" y="272.418" width="313.858" height="191.024" rx="9" stroke="#2BAD81" stroke-width="2"/>
    <rect x="81.27" y="279.438" width="292.8" height="176.986" rx="9" fill="#151C34" stroke="#2BAD81" stroke-width="2"/>
    <path d="M90.27 279.438h53.926v176.985H90.27a9 9 0 0 1-9-9V288.438a9 9 0 0 1 9-9z" stroke="#2BAD81" stroke-width="2"/>
    <rect x="137.141" y="500.763" width="182.25" height="17.302" rx="1" stroke="#2BAD81" stroke-width="2"/>
    <mask id="y30afmv51a" fill="#fff">
        <path d="M187.153 464.134h82.592v35.628h-82.592v-35.628z"/>
    </mask>
    <path d="M267.745 464.134v35.628h4v-35.628h-4zm-78.592 35.628v-35.628h-4v35.628h4z" fill="#2BAD81" mask="url(#y30afmv51a)"/>
    <path d="M90.918 303.513h44.569M90.918 314.444h44.569M102.063 325.779h33.764M114.215 336.307h21.609M90.918 347.238h44.569M90.918 358.17h44.569M102.735 369.505h33.089M114.891 380.032h20.934M90.918 390.964h44.569M102.735 401.896h33.089M115.567 413.232h20.258" stroke="#875D8D" stroke-width="2"/>
    <path d="M190.57 306.236h37.103M234.903 306.236h37.102M190.57 359.391h37.103M234.906 359.391h37.103M175.817 371.759h37.102M185.942 384.204h26.976M216.531 384.204h27.049M246.547 384.204h26.977M178.707 416.672h26.977M209.301 416.672h27.049M239.317 416.672h26.976M220.149 371.759h37.102M190.57 322h51.929M229.266 336.543h68.924M210.024 347.024h61.981M198.309 336.543h23.505M267.233 394.973h-68.924M243.584 405.822h-57.931M303.47 405.822h-55.4M298.189 394.973h-23.505M248.07 322h37.103" stroke="#2BAD81" stroke-width="2" stroke-miterlimit="10"/>
    <path d="M518.849 192.839s-3.397-.458-3.397-5.904 2.103-11.27-5.905-11.998c-7.845-.728-10.191 1.133-16.095-1.806-5.904-2.939-9.301-5.662-8.843-12.914.458-7.253 1.806-6.794-1.132-9.517-2.939-2.723-3.397-4.314-1.807-6.12 1.591-1.807 2.723-6.12-.889-7.468-3.613-1.348-9.517 1.348-7.711-5.905 1.806-7.252 10.649-13.318 11.755-18.71 1.105-5.392 3.963-35.48 13.156-43.784 13.966-12.563 31.275-15.179 45.51-11.728 14.424 3.478 38.526 13.319 42.031 32.03 2.993 16.068 2.211 30.761-7.765 42.354-10.002 11.566-15.071 33-6.335 43.137 8.735 10.137 3.478 18.333 3.478 18.333h-56.051z" stroke="#875D8D" stroke-width="2" stroke-miterlimit="10"/>
    <path d="M551.015 136.952s-1.564-17.282 2.265-21.218c3.828-3.936 10.595-7.414 7.279-14.343-3.289-6.929-10.407-11.27-14.235-8.492-3.828 2.776-6.066 9.193-2.939 12.321" stroke="#875D8D" stroke-width="2" stroke-miterlimit="10"/>
    <path d="M565.087 119.023s-.755-6.039-6.013-8.735M561.043 102.578s7.684-4.502 7.495-6.929M550.473 92.17s1.752-7.279 4.017-7.629M531.062 101.201s20.059-2.94 9.032-20.302M509.387 102.226s10.946-2.265 10.406-6.606c-.539-4.34-4.34-5.554-4.34-5.554" stroke="#875D8D" stroke-width="2" stroke-miterlimit="10"/>
    <path d="M523.084 83.488s14.774 13.238-3.451 13.238" stroke="#875D8D" stroke-width="2" stroke-miterlimit="10"/>
    <path d="M526.371 88.61s13.373 4.61 13.723-7.71" stroke="#875D8D" stroke-width="2" stroke-miterlimit="10"/>
    <path d="M552.606 136.194s-8.115 4.799-8.358 0c-.243-4.799 2.534-10.622-1.779-16.203-4.314-5.581-4.044-11.647-9.868-11.135-5.823.512-2.777 3.235-8.358 1.618-5.58-1.618-.242-4.961-7.09-1.645-6.848 3.316-5.581 5.231-10.137-1.429-4.557-6.659-9.868-17.82-3.802-19.196 6.066-1.374 11.89-6.2 16.204-9.975 4.313-3.801 8.115-8.439 11.404-5.85 3.289 2.56 6.848.242 12.159-.755 5.311-.998 3.046.782 7.091 2.049 4.044 1.267 13.156-.513 13.938 4.556.755 5.069 4.799 8.007 6.848 12.348 2.049 4.34 2.534 1.052 3.046 8.412.513 7.333-.754 11.889-3.289 13.669-2.561 1.752-13.021 21.514-18.009 23.536z" stroke="#875D8D" stroke-width="2" stroke-miterlimit="10"/>
    <path d="M223.615 71.669a4.099 4.099 0 1 0 0-8.198 4.099 4.099 0 0 0 0 8.198zM219.516 67.924v45.571M198.517 71.669a4.099 4.099 0 1 0 0-8.198 4.099 4.099 0 0 0 0 8.198zM202.617 67.927v45.216" stroke="#2BAD81" stroke-width="2" stroke-miterlimit="10"/>
    <path d="M210.814 98.335c20.965 0 37.959-16.995 37.959-37.96 0-20.963-16.994-37.958-37.959-37.958-20.964 0-37.959 16.995-37.959 37.959 0 20.964 16.995 37.959 37.959 37.959z" stroke="#2BAD81" stroke-width="2" stroke-miterlimit="10"/>
    <path d="M217.152 113.498H197.2a5.431 5.431 0 0 1-4.413-2.238 8.967 8.967 0 0 1-1.694-5.27c-.042-5.166 0-13.803 0-13.803" stroke="#2BAD81" stroke-width="2" stroke-miterlimit="10"/>
    <path d="M205.711 113.498h19.952a5.431 5.431 0 0 0 4.413-2.238 8.974 8.974 0 0 0 1.694-5.27c.042-5.166 0-13.803 0-13.803M202.617 70.54h16.899" stroke="#2BAD81" stroke-width="2" stroke-miterlimit="10"/>
    <path d="M194.418 113.143v6.985h31.496v-6.985M195.883 120.128v5.542h28.568v-5.542" stroke="#2BAD81" stroke-width="2" stroke-miterlimit="10"/>
    <path d="M197.66 124.771v5.542h25.013v-5.542" stroke="#2BAD81" stroke-width="2" stroke-miterlimit="10"/>
    <path d="M201.949 130.312s7.927 11 16.418 0M181.387 68.595s-4.35-17.526 9.683-31.643M254.969 75.997l4.956 2.447M257.438 56.317l8.01-2.154M252.395 37.476l9.055-6.149M234.91 19.133l6.337-9.6M215.379 12.168 217.387 1M194.943 13.403l-4.037-8.972M178.987 23.756l-7.78-6.337M164.18 44.062l-10.102-3.2M165.789 74.45l-4.851 2.092" stroke="#2BAD81" stroke-width="2" stroke-miterlimit="10"/>
    <path opacity=".09" fill="#875D8D" d="M0 519h617v66H0z"/>
</svg>
