<svg width="487" height="356" viewBox="0 0 587 456" fill="none" xmlns="http://www.w3.org/2000/svg">
    <circle opacity=".4" cx="359" cy="228" r="228" fill="#1E253C"/>
    <path stroke="#fff" stroke-width="2" d="M1 438.681h324.755v14.615H1zM20.383 271H306.37v166.915H20.383z"/>
    <path stroke="#2BAD81" stroke-width="2" d="M120.07 295.922h164.146v14.615H120.07zM120.07 320.844h164.146v86.611H120.07z"/>
    <path opacity=".1" fill="#fff" d="M134 317h156v79H134z"/>
    <path d="M41.535 297.691h60.92M41.535 314.306h60.92M41.535 330.92h60.92M42.535 359.611h58.92v50.613h-58.92z" stroke="#875D8D" stroke-width="2"/>
    <rect x="215.75" y="17.045" width="274.12" height="159.955" rx="14" stroke="#fff" stroke-width="2"/>
    <path stroke="#2BAD81" stroke-width="2" d="M311.332 40.94h157.3v13.93h-157.3zM311.004 65h158v85h-158z"/>
    <path opacity=".1" fill="#fff" d="M320.004 59h160v87h-160z"/>
    <path d="M235.992 42.595h58.41M235.992 58.524h58.41M235.992 74.455h58.41M236.992 102.005h56.41v48.445h-56.41z" stroke="#875D8D" stroke-width="2"/>
    <rect x="488" y="280" width="68.357" height="136.91" rx="9" stroke="#fff" stroke-width="2"/>
    <path stroke="#2BAD81" stroke-width="2" d="M498.824 346.749h46.709v10.628h-46.709zM498.824 366.593h46.709v35.884h-46.709z"/>
    <path opacity=".1" fill="#fff" d="M501.824 362.593h48.709v37.884h-48.709z"/>
    <path d="M497.824 302.452h48.709M497.824 313.276h48.709M498.824 323.296h46.709v14.236h-46.709z" stroke="#875D8D" stroke-width="2"/>
</svg>
